<svg viewBox="0 0 1000 572" xmlns="http://www.w3.org/2000/svg">
   <path
      id="logo-path"
      d="m 267.3047,537.99782 c 0.003,-0.12719 1.99747,-0.99179 4.43177,-1.92135 22.23821,-8.49194 33.60795,-15.4359 47.91301,-29.26247 5.25513,-5.07936 12.43034,-13.44165 16.31339,-19.01227 0.87061,-1.24899 1.66507,-2.27526 1.76548,-2.28063 0.10041,-0.005 0.63619,0.64371 1.19063,1.44235 0.55443,0.79862 1.07913,1.45346 1.16599,1.45521 0.21841,0.004 3.56124,-4.93038 5.23229,-7.72395 2.85758,-4.77711 5.19071,-10.47785 6.25841,-15.29168 0.25632,-1.15578 0.49744,-3.76319 0.57742,-6.2444 0.20934,-6.49536 -0.67971,-11.05212 -3.3724,-17.28475 -0.71856,-1.66317 -1.26995,-3.06044 -1.22537,-3.10502 0.14669,-0.14669 3.63286,2.24586 5.5091,3.78084 2.08497,1.7058 4.13454,3.97195 5.74498,6.35209 1.09543,1.61899 3.47493,6.37175 3.47493,6.94071 0,0.69316 0.48596,0.17129 1.83476,-1.97022 2.67631,-4.24931 3.8835,-8.57255 4.64841,-16.64737 0.23434,-2.47385 0.50861,-5.06846 0.60949,-5.76583 l 0.18338,-1.26788 1.19063,2.17011 c 1.16737,2.12773 2.21194,3.14063 3.24114,3.14283 0.35862,0 0.46329,-0.22275 0.46424,-0.99121 0.005,-3.96748 0.62968,-10.10732 1.39325,-13.69219 0.72943,-3.42447 0.84534,-4.49487 0.84531,-7.8052 -5e-5,-4.60799 -0.38354,-6.34892 -2.24388,-10.18646 -1.80591,-3.72523 -3.99261,-6.3328 -8.68137,-10.35217 -2.18535,-1.87341 -3.98264,-3.47512 -3.99394,-3.55939 -0.0377,-0.28088 3.42146,0.30338 5.69222,0.96142 4.11149,1.19147 7.7706,3.3102 12.23158,7.08245 l 2.50867,2.12137 -0.18703,-1.43414 c -0.61611,-4.72464 -1.9331,-8.93472 -4.25588,-13.60496 -3.31951,-6.67432 -8.27693,-12.19441 -15.40888,-17.15783 -1.05174,-0.73194 -1.86698,-1.37612 -1.8116,-1.4315 0.0554,-0.0554 2.16006,0.3951 4.67707,1.00108 3.88283,0.9348 4.90812,1.08794 6.76529,1.01062 2.638,-0.10982 3.38198,-0.61756 3.38198,-2.30806 0,-1.27834 -1.00312,-2.93516 -4.18632,-6.91441 -1.29048,-1.61316 -2.30251,-2.9732 -2.24896,-3.02228 0.0535,-0.0491 2.18091,-0.83116 4.72753,-1.73792 5.53556,-1.97104 7.89109,-3.08901 11.31718,-5.37125 4.21404,-2.80712 6.62847,-5.82578 7.10189,-8.87926 0.16272,-1.0495 0.13335,-1.14117 -0.32263,-1.00727 -1.35888,0.39902 -5.97369,1.2759 -6.09201,1.15758 -0.35266,-0.35266 2.37517,-4.94123 4.72424,-7.94687 2.51945,-3.22357 3.45128,-4.74596 4.31906,-7.05617 0.66363,-1.76673 0.7461,-2.33262 0.75192,-5.15937 0.005,-2.35247 -0.10358,-3.42366 -0.41852,-4.13486 -0.4165,-0.94062 -3.44506,-4.06723 -3.93964,-4.06723 -0.36663,0 -3.66964,3.32473 -4.07771,4.10454 -0.1914,0.36571 -0.42918,1.20642 -0.52842,1.86825 l -0.18045,1.2033 -2.95495,-0.11311 c -4.35176,-0.16658 -5.7614,0.57046 -8.25296,4.31503 -4.04915,6.0855 -4.86931,11.37261 -2.48814,16.04008 0.30189,0.59174 0.49347,1.13133 0.42574,1.19906 -0.0678,0.0677 -3.91581,-0.0711 -8.55128,-0.30848 -4.63547,-0.23738 -8.9639,-0.35316 -9.61874,-0.25728 -1.78806,0.26181 -3.63921,1.153 -4.45778,2.14606 l -0.73007,0.88572 -6.32957,-2.11399 c -3.48126,-1.16269 -6.42165,-2.11397 -6.5342,-2.11397 -0.11256,0 -0.20463,0.36309 -0.20463,0.8069 0,0.44379 -0.17928,1.15358 -0.39841,1.57734 -0.4536,0.87715 -1.1774,1.12318 -4.57073,1.55363 -3.50901,0.44517 -5.34953,1.46532 -6.49984,3.60276 -0.53374,0.99176 -0.56885,1.4161 -0.55821,6.74687 0.0159,7.88787 0.83251,13.0406 3.18738,20.10833 2.23541,6.7092 4.96448,11.56674 10.44408,18.58965 1.59507,2.04439 2.85573,3.76148 2.80141,3.8158 -0.22654,0.22651 -4.69291,-1.37319 -6.6258,-2.37313 -5.0696,-2.62268 -9.90015,-7.30586 -13.70351,-13.28544 -1.27992,-2.01229 -6.95903,-11.96496 -12.86831,-22.55184 -2.04975,-3.67228 -4.22815,-7.42275 -4.84088,-8.33438 -1.58175,-2.35338 -5.82352,-6.5134 -8.25401,-8.09495 -3.05127,-1.98548 -4.48067,-2.61718 -10.89755,-4.81597 l -5.82083,-1.99456 v -0.78436 -0.78436 l 2.38125,-0.16526 c 1.30969,-0.0909 5.11969,-0.24582 8.46667,-0.3443 3.34697,-0.0985 7.09744,-0.29921 8.33437,-0.44606 2.80245,-0.33269 6.38711,-1.51156 8.69172,-2.85842 1.95397,-1.14195 4.60102,-3.74899 5.67307,-5.58734 2.35297,-4.03485 2.54737,-8.97443 0.57084,-14.50398 -0.50191,-1.40415 -0.91259,-2.81242 -0.91263,-3.12955 -5e-5,-0.35962 0.59248,-1.14178 1.57464,-2.07859 2.93781,-2.8022 4.75345,-6.40961 5.73847,-11.40151 0.59647,-3.02291 0.5997,-12.34974 0.007,-21.41328 -0.58106,-8.89095 -1.25794,-11.72768 -3.71241,-15.55829 l -0.99392,-1.55115 3.27141,-3.34364 c 6.17559,-6.3119 7.28279,-8.5158 9.33138,-18.57449 1.24166,-6.09656 1.52151,-8.84754 1.60676,-15.79454 0.0451,-3.67607 0.15497,-6.80178 0.2441,-6.94603 0.20895,-0.33809 0.84858,0.003 1.82894,0.97441 0.99028,0.98155 2.03824,3.31827 3.59907,8.02515 3.21339,9.69047 4.12814,19.45299 3.18569,33.99896 -0.18854,2.91042 -0.26405,6.3037 -0.16777,7.54062 0.25458,3.27023 1.12826,8.18359 1.87626,10.5514 1.4151,4.47956 4.43191,7.60855 8.59322,8.91276 0.80037,0.25085 1.54107,0.5307 1.64603,0.62187 0.10493,0.0912 -0.82275,0.98362 -2.0615,1.98313 -2.33598,1.88487 -5.09268,5.07056 -6.28772,7.26626 -1.02598,1.88505 -2.03039,8.72294 -2.02584,13.79167 0.006,6.60415 2.48592,10.88948 7.8363,13.54068 2.11542,1.04826 2.47531,1.14319 4.31237,1.13755 3.05487,-0.009 4.91606,-1.211 6.13092,-3.95835 0.84569,-1.91241 0.92202,-4.20343 0.26794,-8.04106 -0.30694,-1.80088 -0.55808,-3.4449 -0.55808,-3.65339 0,-0.21886 1.12884,0.4862 2.6711,1.66838 l 2.6711,2.04745 1.62838,-0.33094 c 3.24413,-0.65934 5.37244,-2.43813 6.48954,-5.42387 0.29697,-0.79375 0.72374,-2.8515 0.94837,-4.57277 0.41371,-3.17008 1.13208,-7.24871 1.30768,-7.42429 0.0527,-0.0528 1.12914,1.16036 2.39199,2.69579 2.60025,3.16148 2.35019,3.10163 4.72263,1.13022 2.23001,-1.85309 4.52834,-5.56202 5.6937,-9.18832 0.82905,-2.57966 1.10884,-4.54665 1.10884,-7.79484 v -2.93515 l -2.27303,-1.12731 c -1.64979,-0.8182 -2.20509,-1.21526 -2.0252,-1.44804 0.13631,-0.17637 0.75319,-0.97001 1.3708,-1.76363 1.89913,-2.44028 3.37696,-5.77578 3.99111,-9.00811 0.50292,-2.64692 0.33017,-7.46591 -0.42209,-11.77396 -0.60428,-3.46067 -0.67093,-4.39388 -0.52049,-7.28951 0.13105,-2.52232 0.0742,-3.79238 -0.23648,-5.28235 -0.7026,-3.36968 -2.84329,-7.26488 -5.72604,-10.41903 -1.63787,-1.7921 -2.48303,-2.27682 -3.96994,-2.27682 -2.58683,0 -4.23746,2.21435 -6.55484,8.79346 -0.99253,2.81789 -1.39237,3.60796 -2.19564,4.33861 -0.55719,0.50681 -2.12416,1.42002 -2.43663,1.42002 -0.0675,0 -0.16378,-1.93477 -0.21402,-4.29948 -0.0809,-3.80492 -0.16113,-4.45167 -0.69779,-5.6224 -0.72657,-1.58507 -1.91825,-2.88388 -3.35743,-3.65932 -1.55051,-0.83542 -5.34863,-0.82174 -6.93827,0.0249 -2.49584,1.3294 -3.96341,3.52378 -4.26892,6.38302 -0.28509,2.66827 0.22209,9.0569 0.90733,11.42847 0.0973,0.33678 -0.79213,1.0364 -1.31757,1.0364 -0.1883,0 -3.0367,-3.90605 -3.47294,-4.7625 -0.75428,-1.4808 -1.17113,-5.44841 -1.35306,-12.87886 -0.12319,-5.03137 -0.0803,-7.38341 0.15693,-8.59896 0.68236,-3.49702 3.04413,-6.78029 7.52996,-10.46805 1.17808,-0.96848 2.17226,-1.77755 2.2093,-1.79795 0.037,-0.0204 -0.49144,-1.25098 -1.17441,-2.73466 l -1.24174,-2.69758 0.56808,-0.56811 0.56812,-0.5681 5.50108,2.66299 c 13.11754,6.34997 17.80424,7.15372 17.80424,3.05326 0,-1.41068 -0.13261,-1.92955 -1.27466,-4.98796 l -0.80113,-2.14543 4.61359,2.36338 c 5.40126,2.76688 6.70436,3.07919 8.54086,2.047 0.59669,-0.33536 1.41396,-1.08503 1.81615,-1.66594 0.65376,-0.94431 0.73031,-1.28273 0.72247,-3.19447 -0.007,-1.74094 -0.14605,-2.45784 -0.74763,-3.85806 -1.58467,-3.68847 -1.84346,-4.59874 -1.8429,-6.48229 0,-1.24874 0.17952,-2.30719 0.54993,-3.2491 l 0.54936,-1.39702 -1.82018,-0.91663 -1.8202,-0.91663 1.35403,-1.78739 c 1.75893,-2.3219 3.2529,-5.43683 3.81122,-7.94635 0.34317,-1.54247 0.41151,-2.73757 0.29726,-5.19805 -0.12451,-2.68162 -0.0696,-3.42894 0.34195,-4.65029 0.70331,-2.08747 2.55585,-5.52147 3.60982,-6.69145 0.49691,-0.55159 0.83285,-1.11714 0.74657,-1.25677 -0.0863,-0.13962 -0.19434,-0.25386 -0.24006,-0.25386 -0.0457,0 -1.64573,1.1834 -3.55555,2.62979 -2.96473,2.24532 -3.50649,2.56444 -3.70586,2.18281 -0.1284,-0.24584 -0.67924,-1.49021 -1.22409,-2.76527 -0.78597,-1.83932 -1.12512,-2.35203 -1.64145,-2.48163 -1.44013,-0.36144 -3.37767,0.16255 -6.94902,1.87929 -2.60789,1.2536 -4.00441,1.76911 -5.14511,1.89925 l -1.5657,0.17862 1.64084,-2.35675 c 0.90244,-1.2962 2.17972,-3.1011 2.83834,-4.01088 l 1.19756,-1.65415 -0.73374,-0.27896 c -3.14611,-1.19615 -7.12801,-1.01662 -11.7543,0.52994 -8.04273,2.68869 -12.3788,6.43915 -13.50254,11.67899 -0.39925,1.86167 -0.1429,5.89032 0.53674,8.43448 0.48077,1.79972 1.05042,6.88863 0.77113,6.88863 -0.39894,0 -1.99867,-1.48364 -2.89478,-2.68468 -1.28424,-1.72119 -2.91902,-2.87146 -4.08107,-2.87146 -1.3336,0 -2.60408,1.57496 -3.12367,3.87225 -0.78467,3.46929 -0.97629,5.31982 -1.76318,17.02983 -0.62304,9.27175 -0.94237,12.55289 -1.50247,15.43913 -0.74575,3.84283 -0.93432,4.1757 -2.07184,3.65741 -0.76139,-0.34692 -1.00947,-1.24592 -1.40256,-5.08278 -0.86529,-8.44589 -3.83749,-16.14787 -9.28783,-24.06793 -1.45208,-2.11005 -4.02486,-6.11367 -5.7173,-8.89693 -3.86519,-6.35647 -3.86135,-6.30927 -0.58827,-7.21837 l 2.3151,-0.64301 -2.1e-4,-1.74116 c 0,-2.957 -0.51636,-7.42128 -1.22328,-10.58389 -2.18463,-9.77344 -7.12858,-18.21628 -16.39652,-28.00049 -3.29599,-3.47959 -3.3142,-3.50572 -2.44152,-3.50425 1.57411,0.003 2.95775,0.56058 5.11257,2.0616 5.47919,3.81671 10.73055,7.61417 15.13256,10.94293 5.02345,3.79868 6.86895,4.90128 9.46843,5.65697 5.73437,1.66703 12.02126,-2.9498 12.49196,-9.1736 0.34626,-4.57814 -0.91504,-7.86556 -4.71721,-12.29494 -5.2252,-6.08716 -10.57685,-11.03856 -15.70699,-14.532273 -3.80008,-2.58793 -5.15937,-3.63254 -5.15937,-3.96493 0,-0.16056 0.15764,-0.50751 0.35028,-0.77098 0.32845,-0.44919 0.67889,-0.32726 5.6224,1.95632 6.89483,3.18495 10.03845,4.926983 16.08603,8.914023 l 4.99308,3.29184 0.43088,-0.60828 c 0.23698,-0.33455 0.43087,-0.71717 0.43087,-0.85025 0,-0.13309 -1.09397,-1.02816 -2.43104,-1.98904 -3.02422,-2.17335 -3.4979,-2.61138 -5.31252,-4.912743 -1.92215,-2.43772 -4.77761,-5.36951 -7.07311,-7.26221 -4.34287,-3.580818 -8.96892,-6.071804 -17.85937,-9.616765 -6.02613,-2.402843 -12.57368,-5.312373 -14.55209,-6.466499 -1.68769,-0.984536 -4.13941,-3.375554 -5.3231,-5.191315 -0.9993,-1.532906 -2.6144,-5.319117 -2.6144,-6.128835 0,-0.230528 0.60365,0.306213 1.34145,1.192763 4.05633,4.874183 10.69865,7.67598 18.19771,7.67598 h 1.42907 l -0.15603,-0.780187 c -0.28827,-1.44132 -1.83468,-4.233227 -2.99875,-5.413981 -1.32724,-1.346255 -5.41341,-3.82084 -10.93428,-6.62179 -9.44773,-4.793202 -18.06942,-7.668556 -27.17134,-9.061704 -4.17603,-0.639185 -14.259,-0.641281 -18.33699,-0.0038 -6.94456,1.085575 -11.97459,2.648181 -23.17762,7.200244 -3.7562,1.526236 -6.92396,2.774974 -7.03946,2.774974 -0.81452,0 1.01302,-3.512569 2.70137,-5.192088 1.00891,-1.003639 2.86565,-2.160921 7.6056,-4.740484 7.29253,-3.968721 12.50614,-6.373587 16.6236,-7.667918 1.61216,-0.506786 6.19607,-1.696064 10.18646,-2.642844 12.09605,-2.869964 15.8883,-4.196344 20.59969,-7.204956 1.35408,-0.86469 1.45852,-0.890584 1.78594,-0.442817 0.19126,0.26157 0.34775,0.614646 0.34775,0.784617 0,0.169968 -1.44022,2.078156 -3.20048,4.240416 -1.76027,2.162257 -3.09972,3.960635 -2.97656,3.996396 0.12315,0.03576 4.86735,0.894384 10.54267,1.908056 18.32724,3.273438 24.05575,3.989924 31.93489,3.994205 9.81292,0.0053 17.21141,-1.535282 24.75809,-5.155485 5.29471,-2.53991 9.2383,-5.367311 14.21535,-10.191882 1.60073,-1.551689 3.38667,-3.100983 3.96875,-3.44288 0.58208,-0.341895 1.35337,-0.807458 1.71394,-1.034584 0.6317,-0.397905 0.62313,-0.355084 -0.23571,1.174541 -2.58117,4.597114 -6.12132,9.049633 -9.48243,11.926204 -3.06597,2.623979 -5.99051,4.44926 -12.40224,7.740536 -7.68794,3.946377 -9.736,5.513313 -10.41884,7.971279 -0.79328,2.855431 0.72842,7.789479 3.12973,10.148128 2.22835,2.188757 5.26756,3.015273 10.08959,2.74388 3.59625,-0.202407 5.92654,-0.869085 10.32992,-2.95529 4.45151,-2.109002 5.02708,-2.331744 5.02708,-1.945397 0,0.161904 -0.70308,2.450912 -1.56242,5.086681 -1.87163,5.740807 -2.25724,7.56353 -2.07645,9.815724 0.26988,3.361991 1.36137,4.582768 7.77598,8.697118 2.68824,1.724245 2.92669,1.94206 2.72052,2.485199 -0.21151,0.55713 -0.38026,0.59531 -2.63123,0.59531 h -2.40524 l 1.26846,1.65365 c 1.8461,2.40673 5.23298,5.866493 7.22074,7.376173 3.58836,2.72526 8.47948,4.60623 12.70839,4.88722 5.28479,0.35114 9.7549,-1.50947 15.63714,-6.5087 0.77052,-0.654843 1.33525,-1.012033 1.25495,-0.793753 -0.0803,0.21828 -0.6694,1.909273 -1.30913,3.757753 -1.35025,3.90146 -1.51173,3.4587 1.87954,5.15382 2.63414,1.31667 4.33428,1.3757 6.23742,0.21656 1.02214,-0.62257 1.47439,-1.13612 2.09696,-2.38125 l 0.79375,-1.5875 -0.0167,-4.762513 c -0.0153,-4.41842 -0.0692,-4.93454 -0.74525,-7.14375 -2.04698,-6.689186 -7.46848,-14.919379 -13.95381,-21.182778 -3.66083,-3.535568 -6.87046,-5.867929 -11.64114,-8.459308 -1.51106,-0.820806 -3.20371,-1.928527 -3.76139,-2.461601 -1.06014,-1.013328 -1.91104,-2.365724 -1.65169,-2.625093 0.25439,-0.254391 6.37034,1.468125 9.21163,2.594401 6.3451,2.515169 9.22284,4.659929 21.24257,15.832031 9.14593,8.500957 22.25636,19.648358 26.78179,22.771778 1.34607,0.92904 2.44739,1.765453 2.44739,1.858683 0,0.0932 -1.51804,0.49774 -3.37343,0.89891 -5.7335,1.23968 -6.84438,1.63833 -8.11996,2.91392 -0.84423,0.84423 -1.21767,1.48667 -1.46608,2.52215 -0.98888,4.1221 1.18181,6.64984 8.23838,9.59348 3.08446,1.28667 5.77943,2.87907 5.77943,3.41493 0,0.40561 -2.36191,0.27013 -5.29167,-0.30351 -7.58417,-1.485 -13.46888,0.11886 -15.73887,4.28958 -2.25944,4.15134 0.38052,9.0359 6.51936,12.06235 6.75005,3.32778 12.61539,4.43554 17.99362,3.39839 2.62978,-0.50713 4.03374,-1.01261 7.76235,-2.79477 4.72318,-2.25754 6.47682,-3.00991 6.63853,-2.84819 0.19333,0.19332 -0.78939,2.09891 -2.01155,3.9007 -1.27754,1.88341 -4.60393,5.05031 -7.23183,6.88511 l -2.07383,1.44796 1.01642,0.45478 c 2.58432,1.1563 4.57349,1.35508 11.57814,1.15706 l 6.61459,-0.187 -0.51295,0.61115 c -0.2821,0.33613 -1.45508,1.59627 -2.60662,2.80031 -1.15152,1.20403 -2.04333,2.23951 -1.98178,2.30106 0.0615,0.0615 1.40091,0.65196 2.97637,1.31201 3.16752,1.32708 4.61039,2.2687 7.59495,4.95646 1.10482,0.99496 2.07589,1.80901 2.15794,1.80901 0.0821,0 0.33896,-0.55699 0.57092,-1.23775 0.56962,-1.67173 0.57131,-11.8571 0.003,-16.22474 -0.56303,-4.32489 -0.77999,-15.42669 -0.39592,-20.26046 0.8345,-10.50313 3.55735,-24.154513 5.78223,-28.990043 l 0.99224,-2.15649 0.7244,1.04532 c 0.85784,1.23785 0.8763,1.72471 0.20537,5.41498 -2.46131,13.537963 -1.92664,29.732073 1.61071,48.783143 1.5789,8.50361 4.11477,18.68333 5.47502,21.97855 1.62581,3.93848 5.74575,10.11669 8.31234,12.46507 2.36397,2.163 4.499,2.11254 6.77158,-0.16005 1.79806,-1.79806 3.20384,-4.68251 6.77961,-13.91065 2.84972,-7.35439 4.14522,-10.01838 5.36374,-11.02967 0.36679,-0.30441 0.39513,-0.10275 0.26757,1.90503 -0.0785,1.23501 -0.68265,6.115 -1.34265,10.84443 -1.74988,12.53932 -1.87971,13.89953 -1.86881,19.57917 0.0151,7.91659 0.61415,12.24142 4.96485,35.85104 2.53318,13.74658 2.68992,14.48281 2.901,13.62604 0.53517,-2.17223 4.48993,-19.71056 5.04137,-22.35729 2.47484,-11.87781 3.56608,-22.97873 3.23818,-32.94063 -0.26677,-8.10399 -0.99427,-13.75689 -2.69607,-20.94924 -0.76338,-3.22626 -0.87675,-4.07139 -0.66969,-4.99292 0.13708,-0.61011 0.36552,-1.22556 0.50763,-1.36768 0.52702,-0.52702 2.56831,3.6758 5.65534,11.64371 1.72603,4.45508 3.56896,8.87033 4.09538,9.81165 1.88658,3.37356 4.45158,5.13742 6.62119,4.55319 1.65434,-0.44546 2.97104,-1.57608 5.13692,-4.41096 4.64746,-6.08295 5.68632,-8.47779 8.42557,-19.42316 5.2364,-20.92316 6.89928,-41.74517 4.60637,-57.67917 -0.21987,-1.527973 -0.46535,-4.177123 -0.54552,-5.886993 -0.14202,-3.02961 -0.13141,-3.10986 0.41604,-3.148537 0.30898,-0.02183 0.69254,-0.05159 0.85235,-0.06615 0.47067,-0.04286 2.03213,4.412797 3.14322,8.96938 3.67692,15.07864 4.57161,31.02054 2.6283,46.83125 -0.79539,6.47103 -0.49007,10.16009 1.08439,13.10197 0.30213,0.56453 0.34052,0.53885 1.04921,-0.70175 1.20991,-2.11801 3.14224,-3.69833 6.30708,-5.15813 1.55509,-0.7173 3.39487,-1.56864 4.0884,-1.89188 l 1.26095,-0.58771 -2.67208,-3.13087 c -1.46966,-1.72198 -2.62472,-3.17826 -2.56681,-3.23618 0.0579,-0.0579 1.70498,0.13004 3.66009,0.41768 3.91102,0.57538 8.7076,0.68198 10.88398,0.24189 2.06208,-0.41698 3.95399,-1.05922 3.86294,-1.31135 -0.0438,-0.12126 -2.66922,-2.67704 -5.8343,-5.67952 -3.16507,-3.00247 -5.75468,-5.58156 -5.75468,-5.73132 0,-0.14975 0.22092,-0.55315 0.49096,-0.89645 l 0.49098,-0.62416 4.88331,2.35514 c 2.68584,1.29532 5.94749,2.68222 7.2481,3.08199 2.18472,0.67151 2.70725,0.72685 6.86269,0.72685 4.16152,0 4.67601,-0.0547 6.87916,-0.73127 5.025,-1.54315 9.97588,-4.16937 11.91411,-6.3199 1.35583,-1.50437 1.97652,-3.17076 1.97652,-5.30657 0,-2.15512 -0.43945,-3.44516 -1.63706,-4.80571 -1.88108,-2.13704 -4.77729,-3.06056 -9.60773,-3.06366 -1.74625,-0.001 -4.1275,0.17353 -5.29167,0.38813 -3.41495,0.62949 -5.07476,0.77102 -5.27338,0.44965 -0.27969,-0.45255 2.50994,-2.10072 6.92938,-4.09405 4.31578,-1.94655 6.0506,-3.18219 6.95402,-4.95304 0.7698,-1.50892 0.6904,-3.5123 -0.2095,-5.2874 -1.10133,-2.17241 -2.15482,-2.69322 -7.71771,-3.81538 -2.53468,-0.51134 -4.67455,-0.92971 -4.75506,-0.92971 -0.47202,0 3.02492,-2.742343 6.27512,-4.921033 5.80744,-3.89285 8.77035,-6.368807 13.67232,-11.425296 12.72773,-13.128937 15.28334,-15.48212 20.85708,-19.20504 4.65986,-3.112516 11.27738,-6.173824 16.0764,-7.43704 1.67632,-0.441249 1.78077,-0.440013 2.6957,0.03187 l 0.95179,0.490911 -5.05989,3.175 c -8.64071,5.42191 -13.4262,9.299564 -17.56961,14.236506 -3.82436,4.556818 -6.72512,9.714312 -8.57056,15.238267 -1.87222,5.604142 -2.24002,9.864035 -1.16444,13.485965 0.7171,2.4147 2.93474,4.2478 5.15554,4.26158 1.56761,0.01 4.01455,-0.75919 5.46367,-1.71686 l 1.37322,-0.9075 -1.172,-3.49428 c -0.6446,-1.921863 -1.13062,-3.535653 -1.08006,-3.586223 0.0506,-0.0506 1.56737,0.9992 3.37066,2.332803 1.80332,1.3336 4.17172,2.85458 5.26312,3.37995 1.95919,0.94309 2.0247,0.95479 5.15938,0.9215 3.27781,-0.0348 7.2141,-0.58546 9.525,-1.33246 4.58351,-1.48163 8.84761,-4.748343 12.54937,-9.614043 2.27066,-2.984622 2.31301,-2.755168 -0.46985,-2.545089 l -2.42223,0.182854 v -0.799023 c 0,-0.735134 0.31417,-1.009129 3.92901,-3.42674 4.32305,-2.891256 5.67478,-4.232453 6.2634,-6.21461 0.72136,-2.429084 0.51829,-3.557318 -2.11902,-11.77276 -0.81206,-2.529628 -1.41817,-4.657642 -1.34689,-4.728919 0.0713,-0.07128 1.5933,0.554366 3.38228,1.390317 6.88313,3.216352 10.80203,4.110818 15.61959,3.56508 5.04664,-0.571693 7.399,-2.523122 9.07289,-7.526575 1.24663,-3.726373 0.85941,-6.007428 -1.3752,-8.101258 -1.56393,-1.465408 -2.30286,-1.907072 -8.8319,-5.278924 -3.34838,-1.729222 -7.18354,-3.892468 -8.52263,-4.807215 -5.99588,-4.095885 -13.10645,-12.568912 -12.51741,-14.915856 0.0881,-0.350869 0.29274,-0.637944 0.45479,-0.637944 0.16206,0 1.94451,1.660588 3.96098,3.690196 4.86875,4.900472 8.27116,7.465203 13.12627,9.894575 8.17962,4.092879 19.01446,6.259139 29.57155,5.912371 5.30979,-0.174408 7.39243,-0.45557 16.00729,-2.161032 3.27422,-0.648187 9.82266,-1.734322 14.55209,-2.413632 4.72942,-0.67931 8.64282,-1.272937 8.69645,-1.319173 0.12483,-0.107632 -0.32194,-0.692933 -3.48874,-4.570338 -2.26213,-2.769748 -2.56056,-3.24939 -2.31137,-3.714983 0.28516,-0.532871 0.29061,-0.532942 1.67145,-0.02183 9.63948,3.568068 15.71154,5.548775 21.89054,7.140678 3.8563,0.993505 8.20208,2.186226 9.65729,2.650487 6.4379,2.053916 13.69248,5.400175 18.25625,8.420918 2.48227,1.643006 8.33438,6.772248 8.33438,7.304904 0,0.168603 -0.16603,0.533607 -0.36894,0.811118 -0.36033,0.492768 -0.40518,0.493291 -1.91823,0.02241 -0.85211,-0.265179 -3.03757,-1.113938 -4.85658,-1.886133 -15.6246,-6.632847 -21.83496,-8.0641 -33.4698,-7.713527 -9.53185,0.287208 -17.50597,1.86114 -26.59062,5.24846 -7.0557,2.630805 -17.15828,8.084404 -19.71757,10.643994 -1.29879,1.298927 -2.81451,3.93247 -3.19662,5.554128 l -0.17989,0.763397 3.54338,-0.143087 c 6.43409,-0.259815 10.87377,-2.221338 15.90291,-7.026161 1.38981,-1.327806 1.99975,-1.775873 1.83526,-1.348166 -2.36937,6.1604 -6.0542,10.277779 -11.44013,12.783103 -1.07847,0.501668 -5.53276,2.360586 -9.89838,4.130921 -9.87732,4.005426 -12.28514,5.135147 -15.4667,7.256798 -3.81722,2.545556 -6.48314,5.005656 -10.37272,9.571936 -5.34131,6.270553 -7.22935,8.728013 -6.2484,8.132933 0.20367,-0.12356 2.4466,-1.54836 4.98427,-3.16623 5.75805,-3.671003 9.68097,-5.932233 12.9068,-7.439663 2.65025,-1.23847 7.83463,-3.07246 8.27262,-2.92646 0.14311,0.0477 -2.81117,2.70336 -6.56511,5.90146 -3.91895,3.338663 -9.26049,8.237883 -12.544,11.505273 -5.38046,5.35404 -5.78339,5.82355 -6.81352,7.93952 -0.88694,1.82182 -1.25505,3.0781 -1.93826,6.61458 -0.46384,2.40109 -0.87442,4.40931 -0.91236,4.4627 -0.0379,0.0534 -0.87861,-0.51267 -1.86809,-1.25793 -2.27055,-1.71007 -5.89516,-3.60153 -7.90459,-4.12492 -4.55462,-1.18633 -9.27042,0.27798 -12.95479,4.02257 -2.5834,2.62563 -4.48932,6.94882 -5.17705,11.74304 -0.44215,3.08234 0.0671,5.48892 1.96966,9.30716 0.78206,1.56951 1.34961,2.81966 1.26124,2.77812 -0.0884,-0.0415 -1.73712,-0.70509 -3.66387,-1.47455 -4.01841,-1.60477 -5.62155,-1.80042 -7.36833,-0.89922 -2.59773,1.3402 -5.90343,6.18276 -6.40532,9.38321 -0.52393,3.34109 0.55356,6.14637 4.10387,10.68447 4.84987,6.19923 13.08772,17.42914 19.03746,25.95198 l 1.33842,1.91725 1.16126,-0.8701 c 0.6387,-0.47855 1.78276,-1.31907 2.54238,-1.86782 l 1.38115,-0.99773 -0.16147,6.43286 c -0.23387,9.31743 0.0747,11.08434 3.52684,20.19456 l 1.79208,4.72934 0.96673,-2.10177 c 3.17479,-6.90231 4.36356,-13.90708 4.30803,-25.3851 -0.0313,-6.46929 -0.52293,-9.86806 -2.13088,-14.73139 -1.23568,-3.73737 -1.34707,-6.17117 -0.38145,-8.33464 1.2137,-2.71923 1.18409,-2.73078 4.36094,1.70167 4.13248,5.76572 6.50357,8.01555 8.42815,7.99709 1.26193,-0.0121 2.94536,-1.1126 5.51254,-3.60369 3.3238,-3.22526 5.10249,-5.5498 6.95589,-9.0905 3.18347,-6.08162 3.3731,-9.78526 0.6966,-13.60607 -0.59206,-0.84519 -1.04071,-1.56795 -0.997,-1.60612 0.0437,-0.0382 1.08026,-0.26982 2.30343,-0.51478 2.53593,-0.50787 4.35025,-1.33899 5.55675,-2.54548 1.93945,-1.93944 2.20642,-3.3269 2.17329,-11.29473 l -0.0267,-6.41615 1.91553,-0.004 c 2.48994,-0.005 4.83158,-0.57199 7.13255,-1.72676 2.26849,-1.13849 3.44141,-1.93765 6.90491,-4.7047 5.43566,-4.3426 13.83311,-10.53644 15.17545,-11.19319 0.80372,-0.39323 2.06605,-0.73737 3.02294,-0.82414 l 1.64298,-0.14898 -0.88484,1.29719 c -0.48665,0.71346 -2.45743,2.96407 -4.37949,5.00136 -4.15827,4.40754 -5.39478,5.90616 -7.32425,8.87684 -4.2922,6.60838 -6.5509,13.87712 -6.97262,22.43884 -0.18529,3.76164 0.23456,9.46881 0.85778,11.66046 0.30996,1.08996 2.48116,5.86245 2.86822,6.30461 0.0329,0.0375 1.15022,-0.15542 2.48301,-0.42878 l 2.42324,-0.49703 v 1.19912 c 0,1.05738 -0.18315,1.43644 -1.54954,3.2069 -2.17855,2.82285 -5.18432,7.91513 -5.83009,9.87714 -2.02266,6.14546 -3.262,13.8482 -3.26758,20.30877 -0.005,5.31122 0.1124,5.96006 1.96572,10.90269 l 1.35988,3.62664 -0.69678,2.85565 c -0.97668,4.0027 -1.23843,5.89706 -1.23544,8.94106 0.007,7.40593 2.75537,11.87363 10.29332,16.73432 0.26218,0.16904 -0.95239,3.32668 -2.51558,6.5401 -2.78069,5.71614 -3.75137,10.20855 -4.34459,20.10704 -0.16536,2.75928 -0.41074,5.97397 -0.54528,7.14375 -0.96404,8.38221 0.73909,14.31612 5.77752,20.12987 l 1.8442,2.12796 -0.66863,1.31162 c -1.8723,3.67263 -2.74367,7.4762 -2.40998,10.51946 0.21939,2.00073 1.661,4.9021 3.40561,6.85406 2.78879,3.12023 7.56245,6.11616 11.51411,7.22619 1.21864,0.34232 3.3396,0.49208 9.12813,0.64455 6.69946,0.17648 7.73247,0.26252 9.26041,0.7714 3.38148,1.1262 3.38304,1.15863 0.10642,2.22983 -1.5865,0.51863 -3.92105,1.25111 -5.1879,1.62769 -4.44825,1.3223 -9.69023,4.37594 -13.13408,7.65106 -3.13814,2.98442 -5.21824,6.03718 -9.4888,13.92589 -4.9675,9.17607 -12.15422,21.61622 -13.82403,23.92929 -1.98094,2.74399 -4.74162,5.71574 -7.08075,7.62204 -3.51274,2.86273 -8.22635,5.28999 -10.98296,5.65568 l -1.34163,0.17798 2.69955,-3.14822 c 6.19501,-7.22461 10.1849,-14.87525 12.44303,-23.85957 1.49506,-5.94826 2.23685,-12.01997 2.09236,-17.12659 -0.0796,-2.81334 -0.17365,-3.35219 -0.83077,-4.75998 -0.77163,-1.65301 -2.36834,-3.49864 -3.79383,-4.38521 l -0.83072,-0.51665 0.75544,-1.91468 c 1.22254,-3.09856 1.01079,-3.95547 -1.0887,-4.40574 -0.73626,-0.1579 -2.04126,-0.2871 -2.89997,-0.2871 h -1.56131 l 0.01,-2.3151 c 0.0138,-3.32044 -0.64984,-4.96083 -2.93071,-7.24585 -1.45211,-1.45474 -2.25012,-1.98864 -4.65442,-3.11399 -3.19527,-1.49556 -7.3927,-3.62897 -8.14813,-4.14142 -0.42874,-0.29085 -0.1923,-0.46627 2.0774,-1.54143 4.94686,-2.34337 7.61735,-4.88366 8.85581,-8.42407 1.02148,-2.92013 1.01987,-8.28601 -0.005,-17.16035 -0.46156,-3.99603 -2.08272,-6.62299 -5.02025,-8.13496 l -1.19063,-0.6128 2.15548,-2.20072 c 4.21963,-4.30819 5.90034,-9.64634 5.14527,-16.34199 -0.30366,-2.69269 -1.32746,-5.9485 -2.47639,-7.87516 l -0.64754,-1.08588 -1.00568,2.72447 c -0.55311,1.49846 -1.08845,2.82008 -1.18962,2.93692 -0.10118,0.11687 -0.61817,-0.0437 -1.14888,-0.35687 -0.84116,-0.49627 -0.96493,-0.69836 -0.96493,-1.57522 0,-1.96805 1.06487,-7.08493 2.50536,-12.0387 2.52926,-8.69786 3.07441,-13.29293 2.09693,-17.67485 -0.40073,-1.79639 -1.87727,-5.26148 -2.92356,-6.86094 -0.45519,-0.69585 -0.45461,-0.77113 0.0156,-1.98437 1.69555,-4.37449 2.06997,-5.74077 1.92005,-7.00652 -0.27112,-2.28917 -1.16411,-3.27456 -3.22331,-3.55679 -2.30196,-0.31551 -5.07775,1.37893 -6.34021,3.8703 -0.98457,1.94291 -1.16943,3.83405 -1.29403,13.23713 -0.10067,7.59897 -0.21661,9.61676 -0.81264,14.14301 -0.38235,2.9037 -0.73824,5.32249 -0.79084,5.37509 -0.0526,0.0526 -1.12114,-0.32885 -2.3745,-0.84767 -3.40053,-1.40766 -4.36393,-1.2522 -6.48234,1.046 -1.25289,1.35922 -3.17291,5.17393 -3.85946,7.66794 -0.59885,2.17546 -0.81835,7.81339 -0.40454,10.39088 0.72046,4.48741 3.63304,11.62288 5.94593,14.56682 0.66264,0.84346 1.20483,1.61753 1.20483,1.72013 0,0.10261 -0.58148,1.2263 -1.29217,2.49706 -5.72471,10.2362 -6.43435,22.06718 -2.16982,36.1759 0.57157,1.89105 1.00478,3.47276 0.96263,3.51488 -0.19309,0.19309 -3.02572,-3.2023 -4.30578,-5.16122 -3.07189,-4.70099 -6.0217,-12.07776 -6.80011,-17.00549 -0.21838,-1.38245 -0.57896,-5.32913 -0.80126,-8.77043 -0.3691,-5.71358 -0.8676,-10.07216 -2.20459,-19.2754 l -0.48046,-3.30729 -0.77258,0.0577 c -1.17144,0.0876 -2.01044,0.86299 -3.11237,2.87658 -0.55026,1.00549 -1.20058,1.97884 -1.44516,2.16296 -0.38983,0.29348 -0.50125,0.19553 -0.90299,-0.79375 -0.54732,-1.34781 -0.61595,-4.45918 -0.21447,-9.72238 0.55009,-7.21145 -0.883,-14.79179 -3.93616,-20.82011 -1.51386,-2.98908 -3.62908,-4.98105 -5.99154,-5.6425 -0.65648,-0.18378 -1.19359,-0.43744 -1.19359,-0.56365 0,-0.12618 0.54832,-0.9739 1.21849,-1.88383 1.60456,-2.17855 2.22165,-3.42686 2.21861,-4.48813 -0.003,-0.93125 -1.06678,-2.96738 -2.29077,-4.38319 l -0.74945,-0.86691 -1.97213,1.32014 c -1.08466,0.7261 -2.02022,1.27204 -2.07904,1.21322 -0.0588,-0.0588 0.0413,-1.78035 0.22254,-3.82566 0.65445,-7.38669 0.0279,-11.84174 -1.92543,-13.69063 -1.23968,-1.1734 -1.90407,-1.44499 -3.53494,-1.44499 -2.31118,0 -4.60682,1.64243 -5.60003,4.00656 -0.55415,1.31902 -0.28263,4.07992 0.70276,7.14565 0.70207,2.18432 0.98033,2.6847 2.11365,3.80098 l 1.30513,1.28553 -1.41353,2.16858 c -3.51333,5.3899 -3.26475,7.74552 1.0637,10.08038 1.18285,0.63807 1.45529,0.91147 1.44285,1.44804 -0.008,0.3638 -0.16436,2.62599 -0.3465,5.02709 -0.2332,3.0743 -0.24796,4.42433 -0.0499,4.56414 0.64313,0.45389 2.47185,0.77147 3.58585,0.62275 1.29635,-0.17309 2.8988,-0.9158 6.29187,-2.91616 1.20348,-0.70948 2.27452,-1.20359 2.38011,-1.098 0.35341,0.35341 -2.58204,5.54826 -4.42063,7.8231 -0.9997,1.23693 -3.2576,3.66644 -5.0175,5.39893 -1.75993,1.73249 -3.19988,3.24509 -3.19988,3.36137 0,0.11626 0.77981,1.41306 1.73287,2.88176 0.95308,1.46868 1.79295,2.82689 1.86639,3.01824 0.14058,0.36636 -1.88894,1.28963 -3.56896,1.62361 -1.50061,0.29829 -3.07591,2.12566 -3.75237,4.35279 -0.79558,2.61922 -0.66789,7.43024 0.24733,9.32088 1.04709,2.16297 2.24739,2.61453 8.63026,3.24673 8.27196,0.81928 12.11008,2.1227 17.02197,5.78059 l 0.87849,0.65423 -1.53995,0.45508 c -1.04325,0.3083 -2.73476,0.48237 -5.24415,0.53965 -4.09104,0.0934 -6.67517,0.5067 -9.63367,1.54077 -6.1469,2.14853 -11.26781,7.02689 -14.80886,14.10748 -1.33387,2.66721 -3.12002,7.1097 -3.45127,8.58412 l -0.24551,1.09259 2.62644,-0.16002 2.62641,-0.15999 v 0.74165 c 0,0.90834 -0.44482,1.31726 -2.61316,2.40221 -3.49059,1.74654 -5.3907,4.3897 -5.42726,7.54962 -0.0506,4.37753 2.20858,6.92962 7.24667,8.18615 2.04412,0.5098 3.70417,1.19367 3.70417,1.52596 0,0.13147 -0.68461,0.5547 -1.52136,0.94052 -3.42939,1.58128 -7.7512,0.54247 -15.19063,-3.65128 -1.31511,-0.74134 -2.45803,-1.28098 -2.53984,-1.1992 -0.20537,0.2054 0.25805,1.13493 1.22092,2.44888 1.138,1.553 3.12256,2.80887 8.83314,5.58985 4.45149,2.16781 5.13332,2.59009 6.68073,4.13748 0.94779,0.94781 1.72329,1.82827 1.72329,1.95656 0,0.1283 -0.76409,0.29459 -1.69797,0.36955 -2.05819,0.1652 -3.60531,0.87241 -4.07519,1.86279 -0.29636,0.62469 -0.28416,0.93179 0.0806,2.03015 0.2364,0.71178 0.60505,1.43955 0.81917,1.61727 0.2141,0.17769 0.92864,1.31252 1.58782,2.52179 1.52858,2.80419 2.45203,3.8104 3.4971,3.8104 1.62396,0 4.96481,-2.15828 8.86635,-5.72794 4.99301,-4.56827 10.08486,-6.79952 16.88444,-7.39878 l 1.95117,-0.17198 -4.7625,3.55487 c -3.27993,2.44824 -5.10336,4.00338 -5.85743,4.9957 -2.86017,3.76378 -4.1076,8.50815 -2.67496,10.1737 0.97594,1.13459 2.14077,1.11408 7.05133,-0.12417 2.38686,-0.60187 4.57481,-1.05865 4.86209,-1.01504 0.39693,0.0602 -0.11739,0.60719 -2.14222,2.27819 -6.61512,5.45912 -11.69014,12.14726 -14.53883,19.15999 -1.26913,3.12423 -2.56694,7.91046 -2.8597,10.54642 l -0.18846,1.69675 2.22096,-2.12357 c 5.38557,-5.14943 11.04117,-7.96198 18.59791,-9.2488 0.96819,-0.16487 0.78952,0.0257 -2.92716,3.12269 -5.69725,4.74726 -7.99233,7.38809 -10.04909,11.56306 -1.39515,2.83196 -1.97787,5.28992 -2.13127,8.98974 -0.14044,3.38715 0.003,4.5901 1.21303,10.26856 0.28903,1.35485 0.65463,4.33142 0.81246,6.61458 0.49067,7.09809 0.45815,6.92936 1.33543,6.92936 1.0215,0 1.41272,-0.45773 2.23882,-2.61966 1.00315,-2.6252 1.29244,-2.7676 1.96589,-0.96764 0.46273,1.2368 0.56147,2.19755 0.63343,6.16424 l 0.0852,4.6991 1.04397,2.75392 c 0.57417,1.51463 1.82144,4.36459 2.7717,6.33322 l 1.72772,3.57931 1.27008,-2.52515 c 2.42822,-4.8278 6.39295,-9.30662 10.88412,-12.29543 1.24023,-0.82537 2.31439,-1.44126 2.38699,-1.36866 0.0726,0.0726 -0.21265,0.89493 -0.63392,1.8274 -1.02923,2.2783 -2.28975,6.22427 -2.86588,8.97144 -0.65456,3.12089 -0.65165,10.57036 0.005,13.83598 1.23452,6.13598 4.59787,13.63356 9.23814,20.59353 1.41554,2.1232 2.73703,3.99589 2.93669,4.16158 0.29712,0.24662 0.47175,-0.11057 0.96273,-1.96919 0.32989,-1.24875 0.68231,-2.17117 0.78317,-2.04981 0.10086,0.12134 0.9439,1.29217 1.87338,2.60186 8.12676,11.45077 20.61941,24.1485 31.3549,31.86965 8.0118,5.7622 18.14505,10.81539 32.43879,16.17636 l 5.19004,1.94656 -0.22092,0.77039 c -0.12153,0.4237 -0.2544,0.802 -0.29525,0.84066 -0.0969,0.0917 -18.43688,-3.13939 -22.6055,-3.98256 -8.40597,-1.70029 -16.11291,-5.18845 -26.38121,-11.94012 -11.99838,-7.88921 -21.60045,-15.64002 -37.3139,-30.11977 -9.5179,-8.77062 -10.60931,-9.75579 -14.0508,-12.68314 -6.29444,-5.35408 -11.06744,-8.61121 -17.06563,-11.64569 -6.58235,-3.33002 -12.22049,-5.08103 -18.42338,-5.72169 -3.126,-0.32287 -8.86836,-0.19857 -11.54068,0.24979 -0.69122,0.11599 -1.25677,0.17624 -1.25677,0.1339 0,-0.21936 3.52399,-2.53116 4.94014,-3.24082 3.67377,-1.84103 7.6463,-2.41737 16.49717,-2.39353 4.50406,0.0122 6.87311,-0.12367 6.87311,-0.39394 0,-0.0254 -0.77251,-2.10008 -1.71667,-4.61015 -7.26705,-19.31927 -14.848,-31.23158 -23.48434,-36.90197 -1.20084,-0.78845 -5.57665,-3.19259 -9.72399,-5.34254 -10.09036,-5.23076 -12.36155,-6.71698 -16.76369,-10.96986 -6.16701,-5.95795 -9.99458,-12.18174 -12.71137,-20.66931 -0.81466,-2.54505 -1.48119,-4.71056 -1.48119,-4.81226 0,-0.10171 0.34522,-0.36344 0.76718,-0.58164 l 0.76721,-0.39674 1.04006,1.64671 c 0.57202,0.9057 1.62575,2.64232 2.34164,3.85916 1.78453,3.03326 4.90752,6.7368 7.57481,8.9829 3.90657,3.28969 8.52276,5.87028 10.50086,5.87028 0.41079,0 1.16993,-0.2871 1.68701,-0.63799 l 0.94012,-0.63796 2.73481,2.13153 c 3.40476,2.6537 4.94265,3.63085 5.72455,3.63731 1.40576,0.0116 4.12634,-2.13169 5.10191,-4.01934 1.10731,-2.14254 0.49789,-3.8572 -2.37723,-6.68851 -1.03285,-1.01713 -1.87793,-1.94818 -1.87793,-2.06898 0,-0.12081 0.3415,-0.71737 0.75888,-1.32567 1.1462,-1.67053 2.55008,-4.58984 3.20381,-6.66226 0.78462,-2.48738 0.80047,-5.93336 0.0383,-8.33438 -0.52803,-1.66341 -2.34244,-4.92178 -2.59824,-4.66598 -0.0691,0.0691 -0.41476,1.46227 -0.76808,3.09584 -1.26,5.82588 -2.64824,9.14469 -5.13906,12.28577 -1.21459,1.5317 -3.35312,3.47551 -3.57717,3.25146 -0.15118,-0.15118 0.31769,-6.48999 0.79828,-10.79238 1.49103,-13.34765 -1.109,-18.82926 -10.66755,-22.4903 -1.55046,-0.59385 -3.08639,-1.19097 -3.41318,-1.32691 -0.58576,-0.24371 -0.57544,-0.27479 0.73081,-2.20001 1.71743,-2.53124 2.28803,-4.14038 1.84631,-5.20679 -0.39124,-0.94453 -2.22049,-2.1853 -5.41859,-3.67538 -3.62923,-1.69092 -8.1235,-4.81774 -10.86064,-7.5561 -7.57147,-7.57481 -11.06485,-17.71047 -11.72157,-34.0088 -0.34708,-8.61441 0.34192,-15.52358 2.10452,-21.10295 0.72472,-2.29405 0.94007,-2.70894 1.40444,-2.7055 0.30167,0.003 0.67347,0.0915 0.82626,0.19844 0.18246,0.12769 0.27491,2.60003 0.26938,7.20584 -0.009,7.59106 0.22905,9.768 1.57765,14.42294 1.96372,6.77805 4.94028,11.80717 9.9613,16.83023 4.52141,4.52326 9.14101,5.84234 15.12044,4.31752 2.23882,-0.57092 3.47551,-1.44158 4.26744,-3.00439 0.68471,-1.3512 2.25194,-2.52135 5.01261,-3.74251 0.66907,-0.29596 1.21652,-0.57997 1.21652,-0.63108 0,-0.0512 -2.7682,-0.0753 -6.15156,-0.0538 -5.71468,0.0364 -6.28684,-0.003 -8.05635,-0.55967 -1.04764,-0.32935 -1.96792,-0.70096 -2.04507,-0.82579 -0.16177,-0.26173 4.40089,-1.8919 9.77069,-3.49094 8.81047,-2.62358 12.98414,-5.50804 15.4749,-10.69483 1.38112,-2.87602 1.69029,-4.49484 1.52273,-7.973 -0.22672,-4.70665 -1.31821,-7.22173 -5.51572,-12.70958 l -2.394,-3.12992 2.42689,-1.1371 c 2.14823,-1.00652 2.41051,-1.20398 2.28447,-1.71979 -0.32317,-1.3222 -3.10282,-16.6579 -3.0302,-16.71783 0.0434,-0.0358 0.34203,-0.2019 0.66366,-0.36917 0.53594,-0.27869 0.65974,-0.18767 1.48069,1.08863 3.30652,5.14053 4.99184,7.65281 5.07674,7.56787 0.28599,-0.28598 1.19213,-8.25701 1.19213,-10.48673 0,-2.2597 -0.0884,-2.77326 -0.6822,-3.96494 -0.3752,-0.75295 -1.26754,-1.89526 -1.98294,-2.53846 l -1.30075,-1.16949 3.54108,-7.3692 c 4.29749,-8.94334 4.29842,-9.04378 0.0583,-6.19898 -1.54469,1.03638 -2.8095,1.73284 -2.81072,1.54768 -0.003,-0.50485 2.11672,-18.50517 2.25586,-19.15366 0.10377,-0.4836 0.37568,-0.58595 1.97604,-0.74364 1.02063,-0.10057 1.85571,-0.2404 1.85571,-0.31072 0,-0.0703 -0.59568,-0.84363 -1.32374,-1.71847 -0.72805,-0.87485 -1.51497,-1.96046 -1.74871,-2.41245 -0.58208,-1.12564 -1.05738,-4.06057 -1.45499,-8.98476 -0.32618,-4.03934 -0.3524,-4.15544 -1.00553,-4.45301 -0.3688,-0.16805 -0.70614,-0.20669 -0.74959,-0.0859 -0.0435,0.12083 -0.79523,1.32762 -1.67058,2.68178 -1.3975,2.16193 -1.66293,2.44018 -2.17701,2.28224 -0.76708,-0.23566 -0.72846,-0.18348 -0.99918,-1.34994 -0.64603,-2.78365 0.32436,-7.29501 2.63666,-12.25794 2.60408,-5.58922 3.46535,-9.09755 3.46593,-14.11829 0,-3.10793 -0.46813,-7.31296 -0.81473,-7.31296 -0.33398,0 -1.52202,2.65415 -1.95411,4.36562 -0.22045,0.87313 -0.57681,3.26029 -0.79195,5.3048 -0.45873,4.35962 -0.81071,6.14331 -1.53604,7.78439 l -0.52961,1.19831 -0.20111,-0.79375 c -0.11062,-0.43656 -0.51909,-2.28203 -0.90768,-4.10104 -1.397,-6.53917 -3.55301,-9.26041 -7.33685,-9.26041 -2.05975,0 -5.34765,1.41776 -13.80574,5.95312 l -4.93427,2.64583 1.78649,0.0797 c 2.71923,0.12134 6.31997,-0.56192 12.7417,-2.41779 6.60104,-1.9077 6.27925,-2.07082 3.10708,1.57498 -4.91312,5.64671 -6.51597,9.70865 -5.00007,12.67115 0.97687,1.90906 3.68991,4.12931 7.47268,6.11536 l 1.45138,0.762 -0.1255,1.19062 c -0.30731,2.91602 -0.11014,4.5848 0.85966,7.27605 2.26944,6.29779 2.4094,14.28096 0.43601,24.87083 -3.58016,19.21243 -11.49414,32.98147 -24.52865,42.67604 -2.8185,2.0963 -3.01498,2.19763 -3.3651,1.73554 -0.56084,-0.7402 -0.74459,-2.07436 -0.37965,-2.7563 0.17706,-0.33081 1.01121,-1.44465 1.85367,-2.47525 5.67748,-6.94513 10.28565,-16.7576 12.70934,-27.06272 1.07995,-4.59187 1.24772,-8.21336 0.64823,-13.99244 -0.52324,-5.04388 -0.89607,-6.12217 -3.02639,-8.75295 -1.58355,-1.95556 -2.83773,-2.62868 -4.11339,-2.20768 -1.27731,0.42154 -1.88757,1.30154 -2.69214,3.8821 -0.59195,1.89857 -0.67329,2.56188 -0.57883,4.72138 0.0604,1.38187 0.0274,2.51249 -0.0734,2.51249 -0.27413,0 -1.76186,-1.75509 -2.18977,-2.58326 -0.6341,-1.22727 -0.90506,-2.60422 -1.88669,-9.58758 -1.96355,-13.96883 -3.09899,-17.59676 -6.48967,-20.73594 -2.23531,-2.06951 -5.66815,-3.21455 -9.07992,-3.02864 l -1.54858,0.0844 2.92079,2.4548 c 3.80018,3.19388 5.57368,5.50404 6.66863,8.68658 l 0.48096,1.39793 -2.29597,-0.81025 c -1.26278,-0.44564 -3.30801,-1.31803 -4.54493,-1.93863 -4.25358,-2.13418 -8.70755,-3.16857 -10.98429,-2.55102 -2.7532,0.74681 -4.4613,2.53115 -6.80902,7.11304 -0.76393,1.49093 -1.46273,2.71132 -1.55287,2.71198 -0.0901,0 -0.7783,-0.48802 -1.52926,-1.08596 -1.30244,-1.037 -1.40351,-1.07137 -2.19131,-0.74506 -1.37099,0.5679 -4.72636,3.08414 -6.79596,5.0964 -2.05319,1.99636 -4.85349,5.58141 -6.4403,8.24519 -1.24854,2.09589 -3.4463,6.50867 -3.3097,6.6453 0.0593,0.0593 2.33881,-0.66749 5.06556,-1.6151 2.72671,-0.9476 5.00316,-1.72291 5.05872,-1.72291 0.0556,0 0.22927,0.23955 0.38598,0.53236 0.395,0.73809 -0.67776,2.10045 -2.76326,3.50923 -2.11349,1.42771 -4.64878,3.87315 -6.22921,6.00852 -3.10531,4.19561 -5.86656,11.50872 -7.6498,20.26029 -2.62064,12.86137 -2.70608,24.86784 -0.29043,40.81706 0.39957,2.63821 0.49866,4.0495 0.34047,4.84944 l -0.22315,1.12831 -1.68373,-3.69377 c -2.08095,-4.56517 -3.64514,-8.44851 -4.77827,-11.8628 l -0.86715,-2.61284 -1.11196,3.53888 c -1.10165,3.50605 -3.16135,9.10479 -4.75732,12.93156 -0.71995,1.72628 -0.9227,1.99541 -1.55892,2.06923 -0.72657,0.0843 -0.73038,0.0765 -0.58227,-1.19062 0.082,-0.70152 0.44712,-4.25204 0.8114,-7.89006 0.3643,-3.63802 0.83682,-8.22193 1.05005,-10.18646 0.71477,-6.58538 0.47202,-13.9741 -0.6998,-21.29896 -1.01325,-6.33354 -3.85484,-16.59908 -5.78659,-20.9046 -1.70387,-3.79761 -4.62833,-7.47633 -7.68578,-9.66808 -3.15709,-2.26317 -4.81251,-3.75195 -4.43677,-3.99018 0.85479,-0.54198 3.93644,-0.0243 8.73741,1.46727 l 1.24394,0.38653 -0.25593,-0.67318 c -0.65198,-1.71482 -3.68236,-7.32044 -5.11651,-9.46452 -2.65525,-3.96962 -6.21813,-7.40756 -9.72092,-9.37998 l -1.493,-0.84071 -1.25113,1.46444 c -0.6881,0.80547 -1.3381,1.46447 -1.44439,1.46447 -0.10631,0 -0.5833,-0.8632 -1.06002,-1.91823 -1.28167,-2.8366 -3.06533,-5.61499 -4.2625,-6.63974 -1.46462,-1.25365 -2.88895,-1.59412 -5.99847,-1.43383 -3.13526,0.16161 -6.25546,1.22411 -11.675,3.97563 -1.94816,0.98909 -3.59434,1.74609 -3.65819,1.68222 -0.23611,-0.23609 1.48085,-3.88281 2.67103,-5.67308 1.73352,-2.60761 3.85503,-4.51619 7.57195,-6.81204 l 1.19062,-0.73542 -0.91345,-0.37348 c -1.73915,-0.71112 -6.69099,0.3961 -9.3219,2.08435 -4.00246,2.56836 -5.19682,5.66093 -7.60058,19.68008 -0.72358,4.2201 -1.63571,9.03597 -2.02692,10.70192 -0.70451,3.00011 -0.71586,3.02339 -1.18896,2.43914 -0.2627,-0.32443 -0.60698,-1.27077 -0.76507,-2.10296 -0.15811,-0.83222 -0.4033,-1.92982 -0.54488,-2.43914 -0.34997,-1.25892 -2.32304,-4.75848 -2.7822,-4.93469 -0.20407,-0.0783 -1.35718,0.37782 -2.56249,1.01361 -1.91304,1.0091 -2.33339,1.36687 -3.30848,2.81589 -2.21081,3.28541 -3.10433,8.05182 -2.4697,13.17458 1.55609,12.56088 6.20643,24.33217 13.43805,34.01536 1.60277,2.14609 3.51012,5.17469 3.51012,5.57353 0,0.0728 -0.49379,0.21137 -1.0973,0.30789 -1.25532,0.20072 -1.75088,-0.0661 -5.43267,-2.92502 -12.98638,-10.08398 -21.31351,-26.8528 -23.76093,-47.84891 -0.75843,-6.50632 -0.45731,-11.84765 0.97711,-17.33183 0.43772,-1.67349 1.01102,-4.57445 1.27402,-6.44658 0.26297,-1.87213 0.57756,-3.48978 0.69905,-3.59477 0.12153,-0.10499 0.87577,-0.46337 1.67614,-0.79639 4.8001,-1.99727 7.20241,-5.45808 6.80799,-9.80773 -0.24037,-2.65081 -1.18414,-4.17026 -5.04645,-8.12478 -1.88767,-1.93272 -3.37672,-3.56942 -3.30904,-3.63712 0.0677,-0.0677 1.99475,0.46756 4.28237,1.18946 5.15559,1.62696 7.65458,2.26304 10.31501,2.62552 2.47246,0.33686 5.12215,0.3677 5.3112,0.0618 0.0749,-0.12109 -1.55525,-0.96436 -3.62241,-1.87393 -2.06714,-0.90957 -4.83002,-2.29182 -6.13971,-3.07165 -3.98886,-2.37512 -5.77713,-3.10452 -7.95375,-3.24421 -1.6097,-0.10331 -2.12545,-0.0278 -3.12975,0.45841 -2.1471,1.0394 -3.46422,3.46609 -4.26585,7.8596 -0.5342,2.92936 -1.196,5.38362 -1.4514,5.38362 -0.37066,0 -1.08196,-3.17063 -1.73361,-7.72765 -0.35986,-2.51651 -0.82161,-5.23032 -1.02608,-6.03068 -0.58078,-2.27316 -1.50815,-4.56999 -1.74593,-4.32416 -0.50305,0.52013 -1.10114,4.60315 -1.0985,7.49916 0.004,4.69707 0.80786,7.78702 3.51719,13.52466 1.62674,3.44498 3.16489,8.6204 3.12491,10.5145 -0.0336,1.59076 -0.59139,3.0398 -1.30987,3.40255 -0.79063,0.39916 -0.83995,0.34553 -2.54296,-2.76574 -0.65606,-1.19858 -1.30839,-2.25064 -1.4496,-2.33791 -0.14121,-0.0873 -0.54917,0.0329 -0.90657,0.26711 -0.62595,0.41013 -0.6499,0.53492 -0.65183,3.39624 -0.003,4.71217 -0.28345,5.91625 -2.35445,10.11389 -1.26325,2.56051 -1.73291,3.76397 -1.52138,3.89856 0.16828,0.10708 0.93105,0.19653 1.69503,0.19875 1.14538,0.003 1.38888,0.0853 1.38803,0.46707 0,0.25467 0.49178,4.7828 1.09408,10.06253 0.6023,5.27973 1.02944,9.66518 0.94919,9.7454 -0.0802,0.0802 -1.34646,-0.69456 -2.81384,-1.72175 -2.98125,-2.08693 -2.99027,-2.08314 -2.14016,0.89852 1.22155,4.28453 3.86532,9.295 5.91518,11.21043 l 0.67202,0.62793 -1.45034,1.32551 c -1.82595,1.66883 -2.63568,3.05631 -3.01176,5.16073 -0.3235,1.81017 -0.17153,3.3321 0.87472,8.76001 l 0.57986,3.00836 2.84509,-4.26985 2.84506,-4.26984 0.75391,0.38986 0.75387,0.38984 -1.68396,6.82294 c -1.99493,8.08294 -2.1385,9.76154 -0.9312,10.88933 0.41402,0.38674 1.36652,0.99065 2.11666,1.34199 0.75015,0.35137 1.3639,0.71617 1.3639,0.81068 0,0.0945 -1.01182,1.47315 -2.24845,3.06364 -4.03982,5.1956 -5.30191,8.38697 -5.27669,13.3428 0.013,2.57104 0.12255,3.35032 0.70617,5.02709 1.04981,3.01627 1.94797,4.43113 4.28532,6.75079 3.09555,3.07207 5.61737,4.27032 14.21562,6.7546 2.0339,0.58766 4.3267,1.34652 5.09513,1.68632 1.30575,0.57748 1.38941,0.67037 1.27929,1.42068 l -0.11785,0.8028 -2.72793,0.18595 c -1.50035,0.10226 -4.88585,0.14113 -7.5233,0.0863 l -4.79538,-0.0996 2.17582,1.06177 c 2.49735,1.21867 4.62608,3.03472 5.50971,4.70032 0.55359,1.04352 0.76399,1.19566 2.22684,1.61002 4.55166,1.28934 7.34595,1.12763 10.94174,-0.63323 4.05598,-1.98622 8.95138,-7.35385 11.84063,-12.98284 3.41638,-6.65596 4.62931,-12.82517 4.62979,-23.54786 l 2.1e-4,-5.19245 0.83601,-0.16719 c 0.45981,-0.092 0.85957,-0.13663 0.88839,-0.0992 0.12448,0.16153 1.74884,6.58334 2.09187,8.27006 0.7946,3.90721 1.01817,7.32454 0.86516,13.22406 -0.37774,14.56462 -3.29398,25.42183 -8.79477,32.74287 -3.18268,4.23588 -6.89073,7.18442 -13.06785,10.39122 -7.40421,3.84384 -8.06448,5.25436 -4.36428,9.32334 l 1.74315,1.9169 -0.74832,0.29835 c -0.41158,0.16412 -1.88161,0.73435 -3.26675,1.26722 -6.63462,2.55238 -9.83433,5.63912 -11.27041,10.87249 -0.68961,2.51312 -0.63479,8.77012 0.11893,13.5744 0.57936,3.69284 0.71761,7.2835 0.31777,8.25373 -0.19569,0.47485 -0.42109,0.32425 -2.19597,-1.46698 -2.67578,-2.7005 -3.92173,-5.27273 -5.76889,-11.90967 -0.76716,-2.75653 -1.48257,-5.01189 -1.58975,-5.01189 -0.30729,0 -1.78533,3.74248 -2.26449,5.73381 -0.61915,2.57307 -0.5593,6.37958 0.13446,8.55369 0.60735,1.90322 2.08672,4.54834 3.40556,6.08917 l 0.85839,1.00285 -1.97917,1.91908 c -3.6762,3.56462 -3.95134,5.6516 -1.16276,8.81959 1.83907,2.08928 4.23225,2.79093 6.25134,1.83282 0.52464,-0.24894 1.47428,-1.14961 2.15667,-2.04544 0.67059,-0.88032 1.71736,-2.13865 2.32616,-2.7963 l 1.10691,-1.19573 0.74518,0.71077 c 0.97792,0.93277 2.09986,1.33708 3.10623,1.1194 2.31651,-0.50106 7.65966,-3.98573 11.03149,-7.19444 3.0947,-2.94502 5.16405,-5.74275 7.77412,-10.51041 l 2.11666,-3.86644 0.0751,2.63459 c 0.12697,4.45389 -0.90964,7.93554 -3.96767,13.326 -3.033,5.34636 -7.45048,10.59426 -12.11474,14.39215 -3.45443,2.81275 -6.81532,4.82787 -13.89062,8.32844 -7.28928,3.60643 -9.9698,5.31538 -13.72474,8.75014 -4.47968,4.09771 -8.03727,9.0305 -11.13324,15.43688 -3.87662,8.02174 -10.53656,22.63741 -10.3845,22.78949 0.0862,0.0862 4.47911,0.24363 9.76207,0.34994 8.9518,0.18012 9.72243,0.23333 11.3252,0.78179 1.77818,0.60851 4.56676,2.1664 5.95312,3.32586 l 0.79375,0.66384 h -2.26221 c -3.01175,0.003 -8.78274,0.46167 -11.893,0.94782 -9.31248,1.45552 -19.98739,6.05271 -27.91214,12.02044 -3.49586,2.63255 -6.64144,5.41449 -13.89202,12.28593 -3.56527,3.37886 -8.14917,7.66768 -10.18646,9.53071 -17.17781,15.70869 -33.99416,27.87857 -46.0384,33.31766 -6.17836,2.79011 -9.92676,3.88435 -20.10744,5.86983 -5.67566,1.10689 -6.84873,1.25233 -11.04635,1.36962 -2.60529,0.0728 -4.69378,0.0282 -4.69057,-0.10007 z M 649.58694,203.26935 c 0.90956,-0.7263 2.41673,-3.06927 2.14548,-3.3352 -0.0694,-0.068 -1.29442,-0.0348 -2.72222,0.0739 -3.0358,0.23106 -3.72753,0.65696 -3.72753,2.2951 0,2.04513 2.30513,2.56257 4.30427,0.96623 z m -1.26767,-5.60429 c 0.42537,-0.42537 0.77163,-0.93138 0.76946,-1.12448 -0.003,-0.19309 -0.3909,-0.80841 -0.86386,-1.36737 l -0.85995,-1.0163 -0.8559,1.19184 c -1.03759,1.4448 -1.06172,1.8311 -0.15878,2.54133 0.9053,0.7121 1.04823,0.69578 1.96903,-0.22502 z m -2.17895,-45.10891 c 1.15186,-1.19954 1.62944,-1.90056 1.62944,-2.39179 0,-0.78188 -0.94129,-2.79048 -1.30768,-2.79048 -0.45815,0 -2.04944,2.12094 -2.354,3.13754 -0.4345,1.45017 -0.40518,3.74162 0.0479,3.74162 0.19521,0 1.08818,-0.7636 1.98438,-1.69689 z M 398.11498,120.83594 c -0.0111,-1.04762 -0.27991,-2.88698 -0.59709,-4.08747 -0.55237,-2.09056 -2.43507,-6.81653 -2.87581,-7.21891 -0.16568,-0.15124 -5.35024,2.48547 -9.80924,4.98866 l -0.60251,0.33825 1.20806,1.53767 c 1.67468,2.13161 3.40643,3.90098 4.42701,4.52325 1.19266,0.72717 3.11224,0.67724 5.08119,-0.13216 0.86553,-0.3558 1.59509,-0.62087 1.62123,-0.58903 0.0262,0.0318 0.24866,0.75837 0.49448,1.61451 0.59952,2.0882 1.08069,1.64264 1.05268,-0.97477 z m 241.83724,-1.68635 c 0.0797,-0.21996 0.63915,-0.12496 1.91458,0.32515 0.99105,0.34974 2.28454,0.63841 2.87446,0.64148 1.44965,0.008 3.59812,-1.10401 4.76477,-2.46517 1.10995,-1.29497 2.76164,-3.73313 2.76164,-4.0766 0,-0.13197 -2.2806,-1.40941 -5.06801,-2.83875 -5.83745,-2.99335 -5.23521,-3.03909 -6.60054,0.50129 -1.08675,2.81802 -1.55043,5.11749 -1.55601,7.71623 -0.005,2.36312 0.27612,3.08455 0.59214,1.51913 0.11234,-0.55661 0.255,-1.15185 0.31697,-1.32276 z"
      />
</svg>